# xmcd
#
# Track frame offsets: 
#        150
#        14012
#        25770
#        40010
#        51252
#        66702
#        78950
#        93785
#        108587
#        120237
#        139870
#        156015
#        167925
#        183460
#
# Disc length: 2672 seconds
#
# Revision: 2
# Processed by: cddbd v1.5.2PL0 Copyright (c) Steve Scherf et al.
# Submitted via: ExactAudioCopy v1.0b1
#
DISCID=b70a6e0e
DTITLE=Tuláci - Ovečka
DYEAR=2000
DGENRE=Country
TTITLE0=Ovečka - bláznova ukolébavka
TTITLE1=Tisíc mil
TTITLE2=Červená řeka
TTITLE3=Suzanne
TTITLE4=Niagara
TTITLE5=Zelené pláně
TTITLE6=Ten širý proud
TTITLE7=Poutník s kytarou
TTITLE8=Rosa na kolejích
TTITLE9=Džínová láska
TTITLE10=Už koníček pádí
TTITLE11=Rodné údolí
TTITLE12=Jarní král
TTITLE13=Nahý džíny
EXTD=
EXTT0=
EXTT1=
EXTT2=
EXTT3=
EXTT4=
EXTT5=
EXTT6=
EXTT7=
EXTT8=
EXTT9=
EXTT10=
EXTT11=
EXTT12=
EXTT13=
PLAYORDER=
